inDegrees=yes
name=IK-live
DataType=double
version=3
OpenSimVersion=4.1
endheader
time	pelvis_tilt	pelvis_list	pelvis_rotation	pelvis_tx	pelvis_ty	pelvis_tz	hip_flexion_r	hip_adduction_r	hip_rotation_r	knee_angle_r	ankle_angle_r	subtalar_angle_r	mtp_angle_r	hip_flexion_l	hip_adduction_l	hip_rotation_l	knee_angle_l	ankle_angle_l	subtalar_angle_l	mtp_angle_l	lumbar_extension	lumbar_bending	lumbar_rotation	neck_flex	neck_latbend	neck_rot	arm_flex_r	arm_add_r	arm_rot_r	elbow_flex_r	pro_sup_r	wrist_flex_r	wrist_dev_r	arm_flex_l	arm_add_l	arm_rot_l	elbow_flex_l	pro_sup_l	wrist_flex_l	wrist_dev_l
38.1320913	-1.207862084666605	15.15400860747818	-259.808204162956	0.2341366603171506	0.04326292228651554	-1.326684523481465	164.8670705032291	3.2662229066272	105.7461202003351	5.899560354604904	2.451982624139334	1.987972377786656	0	33.30680561035053	-55.32661536378375	-46.6576284956847	9.793848132074926	-0.4439473045988533	4.250290820099795	0	-21.37711699760957	1.659277491615732	3.206407148933037	0	0	0	89.58261623290497	-14.99865867045169	-0.09289280670716507	74.99423768557078	44.99583701160461	0	4.99922979877053	89.83324573271737	-15.01344109024721	-0.0846497405966388	74.99436511615762	44.99832774327137	0	4.99922979877053
38.2990053	-1.209067488756932	15.15450888756337	-259.8067756864068	0.2341366603171506	0.04326292228651554	-1.326684523481465	184.758841672663	-5.814667928942847	137.4648898277977	5.899560354604904	2.451982624139334	1.987972377786656	0	33.2399831365064	-55.34580588097757	-46.63122778434311	9.793848132074926	-0.4439473045988533	4.250290820099795	0	-21.37711699760957	1.659277491615732	3.206407148933037	0	0	0	89.58265252163569	-14.99865901189445	-0.09286066683387717	74.99424063831063	44.99584271853982	0	4.999232152517624	89.83326023086413	-15.01343766871499	-0.0846204527373647	74.99436800553291	44.9983300359351	0	4.999232152517624
38.4490269	-1.23204795905252	15.150471404043	-259.7225957308332	0.2341366603171506	0.04326292228651554	-1.326684523481465	195.014482072027	-5.601938819806789	147.2938145150279	5.899560354604904	2.451982624139334	1.987972377786656	0	33.23191732788481	-55.34585940475848	-46.54897155497982	9.793848132074926	-0.4439473045988533	4.250290820099795	0	-21.37711699760957	1.659277491615732	3.206407148933037	0	0	0	89.58266105638737	-14.99865909223264	-0.09285310153098753	74.99424133384545	44.9958440679245	0	4.999232712091748	89.83326364068532	-15.01343686366156	-0.08461355876102754	74.99436868614181	44.99833057802734	0	4.999232712091748
38.6153068	-1.231130772745701	15.14937465631207	-259.7153709813504	0.2341366603171506	0.04326292228651554	-1.326684523481465	190.8121437504163	-3.920204306998112	140.9573619965351	5.899560354604904	2.451982624139334	1.987972377786656	0	33.19849419050419	-55.36710797527976	-46.52343417817419	9.793848132074926	-0.4439473045988533	4.250290820099795	0	-21.37711699760957	1.659277491615732	3.206407148933037	0	0	0	89.58266791815706	-14.99865915679078	-0.09284702314161873	74.99424189257178	44.99584515124765	0	4.999233161046751	89.83326638211342	-15.01343621673691	-0.08460801975311283	74.99436923287804	44.99833101323389	0	4.999233161046751
38.7824056	-1.229825009990885	15.14963695588665	-259.7134773523647	0.2341366603171506	0.04326292228651554	-1.326684523481465	173.910330799169	8.710122728076097	114.475232589841	5.899560354604904	2.451982624139334	1.987972377786656	0	33.18929912368554	-55.3715342057406	-46.48552865164579	9.793848132074926	-0.4439473045988533	4.250290820099795	0	-21.37711699760957	1.659277491615732	3.206407148933037	0	0	0	89.58270783028669	-14.99865953221493	-0.09281169049526003	74.99424513774352	44.99585141360559	0	4.99923573633641	89.83328232788786	-15.01343245468393	-0.0845758224396668	74.9943724084097	44.9983335290292	0	4.99923573633641
38.9492701	-1.230514396584682	15.15212927685682	-259.7162485241257	0.2341366603171506	0.04326292228651554	-1.326684523481465	172.443801281512	11.41155522859849	113.3364308762421	5.899560354604904	2.451982624139334	1.987972377786656	0	33.0241473144529	-55.35779071225906	-46.55796159592991	9.793848132074926	-0.4439473045988533	4.250290820099795	0	-21.37711699760957	1.659277491615732	3.206407148933037	0	0	0	89.58271628625829	-14.9986596118195	-0.0928041945229582	74.99424582683245	44.99585274917044	0	4.999236288901097	89.83328570623463	-15.01343165698189	-0.08456899164167482	74.99437308271104	44.99833406556958	0	4.999236288901097
39.1141938	-1.235488886947849	15.14812080218418	-259.7173820358196	0.2341366603171506	0.04326292228651554	-1.326684523481465	173.621023121109	11.54829740907791	118.6351414608725	5.899560354604904	2.451982624139334	1.987972377786656	0	32.44975699272985	-55.41403120179112	-47.29504116918546	9.793848132074926	-0.4439473045988533	4.250290820099795	0	-21.37711699760957	1.659277491615732	3.206407148933037	0	0	0	89.58271987561068	-14.99865964545425	-0.09280103161936458	74.99424611712401	44.99585330934568	0	4.999236519897317	89.83328714026	-15.01343131993453	-0.08456610940643329	74.99437336677302	44.99833429061043	0	4.999236519897317
39.2642756	-1.232111346362486	15.14460760726276	-259.7182145731533	0.2341366603171506	0.04326292228651554	-1.326684523481465	168.4453969764452	-15.72409249260741	126.8327627190826	5.899560354604904	2.451982624139334	1.987972377786656	0	32.45113666565786	-55.41049427924212	-47.3400031228038	9.793848132074926	-0.4439473045988533	4.250290820099795	0	-21.37711699760957	1.659277491615732	3.206407148933037	0	0	0	89.5827568871363	-14.99865999347375	-0.09276828349639292	74.99424912414692	44.9958591042632	0	4.999238897058682	89.83330192717929	-15.01342783249813	-0.08453626727205502	74.99437630926644	44.99833661861955	0	4.999238897058682
39.4309639	-1.231253526193097	15.1460906991031	-259.7110021583083	0.2341366603171506	0.04326292228651554	-1.326684523481465	142.818367444905	-27.89078742296973	119.2498269098462	5.899560354604904	2.451982624139334	1.987972377786656	0	32.42340605430297	-55.36478475991695	-47.3573656228612	9.793848132074926	-0.4439473045988533	4.250290820099795	0	-21.37711699760957	1.659277491615732	3.206407148933037	0	0	0	89.58276827218992	-14.99866010066329	-0.09275819029679619	74.99425005190211	44.99586090073362	0	4.999239638706256	89.83330647575885	-15.01342675837264	-0.0845270697183909	74.99437721711237	44.99833734032088	0	4.999239638706256
